<svg xmlns="http://www.w3.org/2000/svg" viewBox="0 0 800 1200" role="img" aria-labelledby="title desc">
  <title id="title">Teenage Mutant Ninja Turtles Cover</title>
  <desc id="desc">A bold orange and dark poster-style cover inspired by Teenage Mutant Ninja Turtles.</desc>
  <defs>
    <linearGradient id="bg" x1="0" x2="0" y1="0" y2="1">
      <stop offset="0%" stop-color="#ff8d2a"/>
      <stop offset="100%" stop-color="#ea5b16"/>
    </linearGradient>
    <linearGradient id="alley" x1="0" x2="0" y1="0" y2="1">
      <stop offset="0%" stop-color="#31140f"/>
      <stop offset="100%" stop-color="#120909"/>
    </linearGradient>
    <filter id="shadow" x="-20%" y="-20%" width="140%" height="140%">
      <feDropShadow dx="0" dy="12" stdDeviation="12" flood-color="#170b08" flood-opacity="0.4"/>
    </filter>
  </defs>

  <rect width="800" height="1200" rx="44" fill="url(#bg)"/>
  <rect x="72" y="76" width="656" height="1048" rx="38" fill="url(#alley)"/>
  <path d="M400 120 L250 310 L550 310 Z" fill="#1d0d0b" opacity="0.95"/>
  <circle cx="350" cy="215" r="18" fill="#fff"/>
  <circle cx="450" cy="215" r="18" fill="#fff"/>
  <path d="M160 995 L400 490 L640 995 Z" fill="#5a241a" opacity="0.85"/>

  <g filter="url(#shadow)">
    <g transform="translate(140 620)">
      <ellipse cx="0" cy="168" rx="70" ry="32" fill="#0d0807" opacity="0.35"/>
      <ellipse cx="0" cy="70" rx="74" ry="98" fill="#5f8f39"/>
      <ellipse cx="-22" cy="-6" rx="24" ry="20" fill="#5f8f39"/>
      <ellipse cx="22" cy="-6" rx="24" ry="20" fill="#5f8f39"/>
      <rect x="-46" y="164" width="18" height="90" rx="8" fill="#5f8f39"/>
      <rect x="28" y="164" width="18" height="90" rx="8" fill="#5f8f39"/>
      <rect x="-92" y="86" width="30" height="138" rx="14" fill="#5f8f39" transform="rotate(18 -92 86)"/>
      <rect x="62" y="86" width="30" height="138" rx="14" fill="#5f8f39" transform="rotate(-18 62 86)"/>
      <rect x="-42" y="96" width="84" height="68" rx="16" fill="#7d5a2c"/>
      <rect x="-36" y="102" width="72" height="56" rx="12" fill="#b48846"/>
      <rect x="-46" y="16" width="92" height="14" rx="7" fill="#9150cf"/>
    </g>

    <g transform="translate(280 520)">
      <ellipse cx="0" cy="220" rx="78" ry="36" fill="#0d0807" opacity="0.35"/>
      <ellipse cx="0" cy="88" rx="84" ry="112" fill="#5f8f39"/>
      <ellipse cx="-24" cy="-6" rx="26" ry="22" fill="#5f8f39"/>
      <ellipse cx="24" cy="-6" rx="26" ry="22" fill="#5f8f39"/>
      <rect x="-54" y="188" width="20" height="118" rx="8" fill="#5f8f39"/>
      <rect x="34" y="188" width="20" height="118" rx="8" fill="#5f8f39"/>
      <rect x="-112" y="114" width="34" height="156" rx="16" fill="#5f8f39" transform="rotate(18 -112 114)"/>
      <rect x="78" y="114" width="34" height="156" rx="16" fill="#5f8f39" transform="rotate(-18 78 114)"/>
      <rect x="-50" y="120" width="100" height="78" rx="18" fill="#7d5a2c"/>
      <rect x="-42" y="128" width="84" height="62" rx="14" fill="#b48846"/>
      <rect x="-54" y="26" width="108" height="16" rx="8" fill="#1f85ff"/>
    </g>

    <g transform="translate(520 520)">
      <ellipse cx="0" cy="220" rx="78" ry="36" fill="#0d0807" opacity="0.35"/>
      <ellipse cx="0" cy="88" rx="84" ry="112" fill="#5f8f39"/>
      <ellipse cx="-24" cy="-6" rx="26" ry="22" fill="#5f8f39"/>
      <ellipse cx="24" cy="-6" rx="26" ry="22" fill="#5f8f39"/>
      <rect x="-54" y="188" width="20" height="118" rx="8" fill="#5f8f39"/>
      <rect x="34" y="188" width="20" height="118" rx="8" fill="#5f8f39"/>
      <rect x="-112" y="114" width="34" height="156" rx="16" fill="#5f8f39" transform="rotate(18 -112 114)"/>
      <rect x="78" y="114" width="34" height="156" rx="16" fill="#5f8f39" transform="rotate(-18 78 114)"/>
      <rect x="-50" y="120" width="100" height="78" rx="18" fill="#7d5a2c"/>
      <rect x="-42" y="128" width="84" height="62" rx="14" fill="#b48846"/>
      <rect x="-54" y="26" width="108" height="16" rx="8" fill="#d94735"/>
    </g>

    <g transform="translate(660 620)">
      <ellipse cx="0" cy="168" rx="70" ry="32" fill="#0d0807" opacity="0.35"/>
      <ellipse cx="0" cy="70" rx="74" ry="98" fill="#5f8f39"/>
      <ellipse cx="-22" cy="-6" rx="24" ry="20" fill="#5f8f39"/>
      <ellipse cx="22" cy="-6" rx="24" ry="20" fill="#5f8f39"/>
      <rect x="-46" y="164" width="18" height="90" rx="8" fill="#5f8f39"/>
      <rect x="28" y="164" width="18" height="90" rx="8" fill="#5f8f39"/>
      <rect x="-92" y="86" width="30" height="138" rx="14" fill="#5f8f39" transform="rotate(18 -92 86)"/>
      <rect x="62" y="86" width="30" height="138" rx="14" fill="#5f8f39" transform="rotate(-18 62 86)"/>
      <rect x="-42" y="96" width="84" height="68" rx="16" fill="#7d5a2c"/>
      <rect x="-36" y="102" width="72" height="56" rx="12" fill="#b48846"/>
      <rect x="-46" y="16" width="92" height="14" rx="7" fill="#f0a12b"/>
    </g>
  </g>

  <text x="116" y="128" fill="#fff0d5" font-family="Arial, Helvetica, sans-serif" font-size="44" font-weight="700">nickelodeon</text>
  <text x="400" y="1050" text-anchor="middle" fill="#d8e6d0" font-family="Arial, Helvetica, sans-serif" font-size="38" font-weight="700">TEENAGE MUTANT NINJA</text>
  <text x="400" y="1110" text-anchor="middle" fill="#85d84f" font-family="Arial, Helvetica, sans-serif" font-size="74" font-weight="900">TURTLES</text>
</svg>
